<?xml version="1.0" encoding="UTF-8"?>
<svg id="Layer_2" data-name="Layer 2" xmlns="http://www.w3.org/2000/svg" viewBox="0 0 373.94 286.78">
  <defs>
    <style>
      .cls-1 {
        fill: #fff;
        stroke-width: 0px;
      }
    </style>
  </defs>
  <g id="Layer_1-2" data-name="Layer 1">
    <g>
      <g>
        <path class="cls-1" d="m206.56,66.43l-3.55-7.79c-.16-.34-.54-.77-.85-.95l-.24-.13c-.32-.19-.88-.41-1.24-.5l-2.77-.66c-1.02.2-1.3,1.12-1.28,2.06.03,1.3.57,1.31.59,2.61.03,1.3-.27,1.29-.24,2.59.03,1.3.14,1.3.16,2.6.03,1.3-.04,1.3-.02,2.6.03,1.3-.2,1.29-.17,2.59.03,1.3.35.93.37,2.22,0,.06,0,.12,0,.17l.67.19c.36.1.96.01,1.32-.2l2.63-1.51c.37-.21.89-.65,1.17-.97l3.2-3.71c.28-.33.38-.87.23-1.21"/>
        <path class="cls-1" d="m163.23,46.4c0,.23-.03.47.02.69.05.22.11.45.2.65.09.2.28.35.4.53.12.18.18.42.33.58.15.15.33.3.51.42.18.12.4.2.6.29.2.09.43.15.64.2.22.04.45,0,.69,0s.46.01.68-.03c.22-.05.43-.11.63-.19.2-.09.44-.12.62-.25.18-.12.35-.28.5-.44.15-.15.22-.38.35-.56.12-.18.21-.37.3-.58.09-.2.1-.42.14-.64.04-.22.19-.43.19-.66l-.04-.07v.06-.03.06-.06.11l-.1-.07c0-.23.12-.47.07-.69-.05-.22-.2-.4-.29-.6-.08-.2-.07-.46-.2-.64-.12-.18-.4-.23-.55-.38-.15-.16-.3-.29-.48-.41-.18-.12-.33-.28-.53-.37-.2-.09-.43-.07-.65-.12-.22-.05-.42-.16-.66-.16s-.45.06-.67.11c-.22.05-.45.03-.66.12-.2.09-.37.24-.55.36-.18.12-.35.25-.5.41-.16.15-.35.28-.47.46-.12.18-.18.4-.27.6-.09.2-.06.43-.1.65-.04.22-.18.43-.18.66v-.09s.01-.01.01-.01v.11-.06h0v.07s-.02-.02-.02-.02"/>
        <path class="cls-1" d="m203.21,46.21c0,.23.05.46.1.68.05.22.05.46.13.66.09.2.2.4.32.58.12.18.32.31.47.46.15.15.31.31.49.43.18.12.38.21.58.3.2.09.43.09.65.14.22.04.44.17.66.17s.48.03.7-.02c.22-.05.42-.18.62-.26.2-.08.4-.19.58-.31.18-.12.4-.21.55-.37.15-.15.22-.39.34-.57.12-.18.21-.37.3-.58.09-.2.15-.41.2-.63.05-.22.15-.44.15-.67l-.07.02h0v-.1.17h0s0-.16,0-.16l.05.07c0-.23-.01-.47-.06-.69-.04-.22-.12-.44-.21-.64-.09-.2-.29-.34-.41-.52-.12-.18-.23-.36-.39-.51-.15-.16-.33-.28-.5-.4-.18-.12-.37-.2-.57-.29-.2-.08-.37-.28-.59-.33-.22-.05-.46.08-.69.08s-.45-.01-.67.03c-.22.05-.42.11-.62.2-.2.09-.42.14-.6.26-.18.12-.38.23-.53.39-.15.15-.19.4-.31.58-.12.18-.36.29-.45.5-.09.2-.11.44-.16.66-.04.22,0,.45,0,.68h-.05v-.07.17-.18.18s-.01-.1-.01-.1"/>
        <path class="cls-1" d="m163.52,85.12c0,.23-.02.47.02.69.05.22.24.39.32.59.09.2.08.45.2.63.12.18.31.31.46.46.15.15.27.35.45.48.18.12.38.23.59.31.2.09.45.04.67.09.22.05.43.13.67.13s.48.07.7.03c.22-.05.45-.12.65-.21.2-.09.33-.32.51-.44.18-.12.42-.18.57-.33.15-.15.32-.32.44-.5.12-.18.11-.44.2-.64.08-.2.14-.41.18-.62.05-.22.04-.43.04-.66l.1-.04h0s0,.05,0,.05v-.11.16h0s0-.03,0-.03l-.1-.03c0-.23.12-.47.08-.69-.05-.22-.22-.4-.3-.6-.09-.2-.08-.46-.2-.64-.12-.18-.38-.26-.53-.41s-.24-.38-.43-.5c-.18-.12-.39-.21-.59-.29-.2-.09-.43-.1-.65-.14-.22-.05-.43-.02-.67-.02s-.44,0-.66.05c-.22.05-.41.11-.62.2-.2.09-.45.07-.63.19-.18.12-.36.26-.51.41s-.21.39-.33.57c-.12.18-.32.32-.4.53-.09.2-.02.45-.06.67-.04.22-.09.43-.09.66l-.07-.03v.07h0v-.08h0s0,.13,0,.13c0,0,0-.08,0-.08"/>
        <path class="cls-1" d="m203.12,85.4c0,.23-.09.47-.04.69.05.22.21.4.3.6.09.2.11.43.23.61.12.18.33.29.48.44.15.16.22.42.4.55.18.12.43.14.63.23.2.09.42.11.64.16.22.04.44.05.67.05s.46.06.68.01c.22-.04.46-.06.66-.15s.35-.28.54-.4c.18-.12.37-.24.52-.39.15-.15.31-.31.43-.49.12-.18.18-.4.26-.6.09-.2.1-.42.14-.64.05-.22.18-.43.18-.66h-.04v-.04.06h0v-.06.04c0-.23-.02-.46-.07-.68-.04-.22-.19-.4-.28-.6-.09-.2-.19-.37-.31-.55-.12-.18-.11-.47-.27-.62-.15-.15-.39-.23-.57-.35-.18-.12-.4-.15-.61-.24-.2-.09-.37-.31-.59-.36-.22-.05-.46.08-.7.08s-.44.03-.67.07c-.22.04-.45.02-.66.11-.2.09-.43.15-.61.27-.18.12-.26.37-.41.52-.15.15-.35.27-.47.45-.12.18-.13.42-.22.62-.09.2-.14.4-.19.62-.04.22-.17.43-.17.66v.02s.01-.08.01-.08v-.04.13h0v-.13s.07.09.07.09"/>
        <path class="cls-1" d="m178.71,55.64c1.25-.37,1.3.08,2.6.11,1.3.03,1.3-.11,2.6-.09,1.3.03,1.29-.4,2.59-.38q1.3.02,2.6.06c1.3.02,1.31.42,2.61.45,1.3.03,1.3.25,2.6.28.58.01.82.12.96.04.04-.36.04-.8-.01-1.11l-.48-2.81c-.07-.4-.35-.98-.63-1.31l-1.75-1.46c-.28-.33-.8-.78-1.16-1.01,0,0-1.72-1.14-2.52-1.6-.79-.47-5.35.39-5.75.37-.4-.02-1.14.09-1.34.39l-2.24,3.36c-.21.31-.45.85-.55,1.21l-.77,2.75c-.04.55.05.94.68.75"/>
        <path class="cls-1" d="m194.75,76.41c-1.28-.27-1.32.42-2.62.39-1.3-.02-1.31-.54-2.61-.57-1.3-.03-1.3.23-2.59.21-1.3-.03-1.3-.16-2.6-.19-1.3-.03-1.29.39-2.59.37-1.3-.03-1.3-.09-2.6-.11-.92-.02-1.27-.3-1.75.42.02.3.1.62.23.86l1.51,2.64c.21.37.65.89.97,1.17l3.05,2.63c.08.03.16.06.24.09.28.08.57.16.84.27-.05-.02-.1-.04-.15-.06.19-.01.36.04.54.1-.03-.01-.07-.03-.1-.04.13-.01.25.02.37.04.4-.04.81-.06,1.22-.1l6.7-3.05c.34-.15.77-.54.95-.85l.14-.24c.18-.31.41-.87.5-1.24l.62-2.58c-.06-.07-.14-.12-.27-.15"/>
        <path class="cls-1" d="m176.69,71.02c-.03-1.3.1-1.3.07-2.59-.03-1.3-.38-1.31-.4-2.61-.02-1.3.27-1.29.24-2.59-.02-1.3-.33-1.31-.35-2.61-.02-1.3-.7-1.32-.5-2.61.18-1.13.33-1.08-.65-1.56l-1.38.24c-.4.07-.98.35-1.31.63l-1.46,1.75c-.32.28-.78.8-1.01,1.16,0,0-1.13,1.72-1.6,2.51-.47.79.39,5.35.37,5.75-.02.4.09,1.14.39,1.34l3.36,2.25c.3.2.85.45,1.21.55l3.22.9c-.03-1.22-.18-1.26-.2-2.53"/>
        <path class="cls-1" d="m186.33.6h0v-.03s0,.02,0,.03m.06-.1s0,.02,0,.04h0v-.04Zm.81-.12h0s0,0,0,0c0-.02,0-.03-.01-.05,0,.02.01.04.02.05m.26.68h0s0,0,0,0c0,0,0,0,0,0m-.36-.61s0,0,0-.01h.06s-.04,0-.06.01m.11.07h0s0,0,0,0Zm3.23,24.46c.12-1.33.89-2.65.89-4.06s-.54-2.76-.66-4.08c-.12-1.33.47-2.71.27-3.93-.2-1.22-.62-2.37-.87-3.45-.26-1.09-.59-2.09-.86-3.02-.27-.92-.95-1.62-1.2-2.36-.26-.73.16-1.62-.04-2.13-.1-.26-.25-.47-.39-.65,0-.06-.03-.11-.06-.16h0c-.02-.07-.07-.13-.11-.19-.04-.11-.07-.23-.11-.34v-.03c-.01-.08-.05-.15-.1-.2-.01-.02-.01-.05-.02-.07,0,0,0,0,0-.01,0,0,0,0,0,.01,0,0-.01,0-.01,0,0,0,0-.02,0-.03-.07-.16-.22-.28-.4-.28-.25,0-.44.2-.44.44,0,0,0,.02,0,.02h.07s-.02.06-.04.08c0,0,0,0-.01,0,0,0,0,.01,0,.02,0,0,0,.02-.01.02v-.03s0-.02,0-.02h0c-.01.1-.04.18-.07.27-.04.05-.07.11-.08.17-.02.05-.02.11-.04.17-.12.27-.26.54-.32.84-.1.49-.04.97-.23,1.42-.24.58-.51,1.13-.67,1.75-.05.2-.1.4-.14.61-.13.22-.24.45-.31.7-.27.92-.32,1.99-.57,3.08-.26,1.08-.2,2.29-.4,3.51-.21,1.22-.81,2.43-.93,3.76-.12,1.33-.39,2.71-.39,4.11s.5,2.77.62,4.09c.12,1.33.19,2.61.39,3.83.2,1.22,0,2.48.26,3.56.25,1.08,1.1,1.95,1.37,2.87.27.92.08,1.91.33,2.64.26.73.46,1.39.66,1.9.15.39.52.61.75.81.02,0,.04,0,.07,0,.22-.22.88-.38,1.06-.84.2-.52.39-1.18.64-1.91.26-.73.08-1.71.35-2.63.27-.92,1.26-1.75,1.51-2.83.26-1.09.41-2.28.61-3.5.21-1.22-.48-2.6-.37-3.93"/>
        <path class="cls-1" d="m162.11,65.92s0-.03,0-.05h0s0-.01,0-.01c0,.02-.01.04-.02.06m-.1-.55h0s.02-.06.02-.06l-.02.06Zm.3-.17h-.02s.05.05.07.08c-.04-.03-.07-.08-.12-.09-.19-.06-.38-.06-.57-.12-.55-.18-.99-.58-1.57-.72-.53-.13-1.05-.16-1.58-.15-.66-.3-1.3-.91-2.13-1.16-.92-.27-1.99-.36-3.07-.61-1.08-.26-2.21-.71-3.42-.92-1.22-.2-2.49-.71-3.82-.83-.66-.06-1.34.19-2.04.46-.49-.01-.99.02-1.5.1-1.09.19-2.12-.08-3.2-.32-.33-.07-.64-.05-.94.02-.21-.02-.42-.03-.62-.01-1.32.12-2.53.88-3.75,1.09-1.22.2-2.43.12-3.52.38-.8.19-1.54.43-2.25.66-.68.06-1.37.13-2.05.19-1.32.35-2.51.94-3.87,1.28-.16.04-.3.02-.45.05l-.09.03h-.03s-.02,0-.02,0c-.01,0-.03,0-.04,0-.12.02-.2.14-.17.26v.04s.01,0,.01,0c-.11.15-.15.36-.15.52,0,.13.08.19.19.24.08.06.16.12.26.15.23.07.48.05.7.17.43.24.9.18,1.31.41.61.11,1.21.23,1.82.34.52.39,1.04.98,1.73,1.19.92.27,1.99.37,3.08.62,1.08.26,2.18.91,3.4,1.11,1.22.2,2.61-.41,3.94-.29,1.33.12,2.68.24,4.09.24s2.79.2,4.12.09c1.33-.12,2.55-.67,3.77-.87,1.22-.2,2.33-.55,3.42-.81,1.08-.25,2.32.32,3.24.04.14-.04.26-.11.38-.18.87-.11,1.66-.68,2.47-1.01.26-.11.52-.22.78-.31.19-.02.39-.04.58-.05.24-.02.56-.07.84-.17.02,0,.04,0,.05-.02.13-.05.24-.12.34-.21h.04c.05-.02.09-.07.11-.12h0c.07-.02.11-.09.12-.16.06-.06.12-.13.18-.21.04-.04.06-.09.06-.14v-.08c0-.08-.04-.15-.11-.2"/>
        <path class="cls-1" d="m191.9,65.9c-.04-.36-.08-.73-.18-1.08,0-.77-.3-1.53-.79-2.13.02.04.03.07.05.1-.14-.28-.4-.47-.66-.63.04.02.06.05.1.07-.04-.02-.08-.05-.12-.08.04.04.06.07.1.11-.1-.09-.19-.18-.28-.27.03.03.06.07.08.1-.16-.14-.3-.32-.52-.38l.17.09c-.06-.05-.13-.09-.21-.12-.1-.12-.21-.22-.31-.28l-.13-.08c-.18-.1-.49-.23-.7-.28l-1.89-.45c-.21-.05-.56-.06-.78-.02l-1.59.27c-.22.04-.55.2-.74.36l-.82.99c-.18.16-.44.45-.57.66,0,0-.64.97-.9,1.42-.27.45.22,3.02.21,3.24-.01.23.05.64.22.76l.61.41c.48.81,1.44,1.28,2.35,1.44-.04,0-.08,0-.12,0,.32.15.61.35.97.38-.04,0-.08,0-.12,0,.12.02.25.05.38.05h-.12c.37.08.78.08,1.15,0l.25.07c.2.06.54,0,.74-.11l1.49-.85c.2-.12.5-.37.66-.55l.97-1.12c.09-.03.18-.07.25-.14l.03-.03s-.08-.02-.12-.02l.05-.05s.1.01.14.02c.19-.22.35-.47.48-.73h0c.11-.14.17-.32.17-.49.05-.21.07-.41.05-.62"/>
        <path class="cls-1" d="m182.29,41.35s0-.02,0-.03h.01s0,.04,0,.04h-.02Zm0,.13h0s0,0,.01,0h-.01Zm-.01,0h-.03s0,0,0-.01c0,0,.01,0,.02,0h0Zm-.36.75s.03-.03.05-.04c.01,0,.02,0,.02,0-.02.02-.04.03-.07.05m-.16-.13h0s0,0,0,0c0,0,0,0,0,0,0,0,0,0,0,0,0,0,0,.01-.01.02m-.74,1.14h0s.01,0,.02,0h-.02Zm1.3-3.11l.02.45s-.01,0-.02,0v-.45Zm0,1.19h.04c0-.05-.01-.11-.04-.16v-.36s.01-.1.03-.15v.11c.31-1.42.25-2.81.17-4.15-.08-1.34-.56-2.47-.91-3.74-.35-1.27-.36-2.76-.86-3.96-.5-1.2-1.05-2.37-1.6-3.51-.15-.39-.36-.79-.6-1.05-.24-.26-.45-.99-.74-1.11-.29-.12-.76.2-1.06.24-.31.04-.37,1.02-.65,1.24-.29.22-.73-.01-.92.32-.19.34-.67.57-.76.98-.09.4-.07,1-.04,1.43.03.43.53.72.68,1.12.39,1.04,1.04,1.9,1.43,2.94.39,1.04.01,2.64.4,3.69.39,1.05,1.27,1.74,1.64,2.8.26.72.5,1.45.74,2.17-.02.29-.1.59-.02.88.13.48.15.99.44,1.39,0,.03.02.07.02.1.02,0,.05.01.07.02,0,0,0,.01.01.02l.04.04s.05.03.07.04c.18.18.37.35.49.59l.06.07s.09.08.15.09h.03s.04,0,.04,0c0,0,0,0,.01,0,.04.01.06,0,.09,0h-.01.03s0,0,0,0c0,0,0,0,.01,0h0s.04-.02.06-.03c0,0,.02,0,.02-.01.03-.01.06-.02.09-.04l.02-.02s-.03.02-.05.03c0,0,0,0,0,0,.03-.03.06-.06.1-.08h.05s.05-.07.06-.11v-.02s0,0,0,.02c.02-.02.03-.05.05-.07l.05-.05s.07-.09.09-.13c.26-.17.43-.45.64-.68-.04.03-.09.06-.13.09.05-.03.09-.06.13-.1.14-.07.23-.21.24-.37.04-.07.06-.13.04-.16,0,0,0,0-.01,0,0-.02.02-.04.02-.07v-.03h0c.03-.05.06-.1.06-.16v-.02s0-.02,0-.02h-.04v-.03Z"/>
        <path class="cls-1" d="m198.41,103.03c-.04-.42.37-1.05.21-1.45-.4-1.03-.83-2.28-1.24-3.31-.41-1.03-.41-1.39-1.13-2.45-.62-.91-1.26-1.56-1.65-2.89-.16-.54-.39-1-.43-1.88,0-.05.01-.09.02-.14v-.05c.05-.05.07-.12.05-.19v-.03s0-.02,0-.02c-.01-.06-.04-.11-.09-.14l.06-.02c0-.22,0-.44-.03-.65,0-.16.01-.31,0-.48l.02.03c0-.05-.02-.11-.06-.14l-.03-.03-.02-.02s-.01,0-.01,0c-.03-.04-.08-.08-.12-.12-.07-.19-.63-.52-.76-.7l-.2-.13h.04s-.03,0-.03,0c-.11,0-.22-.04-.32-.06h0c-.09-.08-.18-.15-.22-.26v.02c-.09-.25-.27-.45-.48-.59-.02-.04-.06-.08-.11-.09h-.02s-.03-.02-.03-.02c-.02-.01-.05-.01-.07-.01-.08,0-.13.04-.18.1-.05.03-.08.07-.09.13-.06.11-.13.21-.2.32,0,0-.01,0-.02.01,0,.02-.01.03-.02.05-.04.07-.08.14-.12.2-.33.32-.82.48-.95.95-.1.35-.11.75.08,1.07-.01.11,0,.22,0,.32-.17,1.26.22,2.56.33,3.73.12,1.34.49,2.27.86,3.52.38,1.25,1.09,2.66,1.62,3.84.52,1.18.54,2.83,1.1,3.95.1.23.4.23.67.25.01.01.02.02.04.03l.1.13s.05.02.07.02h.02s-.02-.02-.03-.03c.27.22.54.42.83.61.03.05.08.09.13.1h-.03c.27.28.64.52,1.05.49.01,0,.02.01.04.01h0s.05-.01.08-.02h0s.04,0,.05,0h.03s.04-.01.05-.02c.24-.06.45-.21.61-.41,0,0,.01,0,.01-.01.17-.09.3-.23.38-.41.14-.12.25-.28.32-.46,0-.01.02-.02.03-.03.17-.34.34-.9.41-1.3.07-.4-.55-.9-.59-1.32"/>
        <path class="cls-1" d="m163.13,58.24h0s-.01,0-.02,0v-.06s.02.05.02.05Zm-15.62-4.65h0s0,0,0,0Zm17.26,5.83l-.04-.03s0-.03-.01-.05v-.02s0-.02,0-.02c-.02-.08-.07-.13-.15-.16-.06-.15-.02-.34-.22-.44v-.02h-.01s-.08-.02-.13-.03c0-.01,0-.03,0-.04h.17c-.03-.09-.11-.15-.21-.15h-.04s0,0-.01,0c-.06-.07-.15-.11-.24-.08-.16-.06-.36-.11-.53-.14,0-.02,0-.04,0-.04-1.02-.41-2.27-.26-3.28-.69-1-.43-1.9-1.06-2.9-1.5-.99-.45-2.18-.77-3.17-1.23-.99-.45-1.49-1.52-2.48-1.97-.21-.1-.55-.03-.88.05-.1,0-.21,0-.31-.02-.35-.05-.6-.33-.95-.42-.25-.07-.51-.08-.75-.01-.03,0-.06,0-.09,0-.07.01-.11.06-.16.11-.08.06-.16.12-.23.22h-.02s0,0,0,0c0,0,0,0,0,0l-.07.05s0,.03-.01.04c-.35.39-.79.75-1.34.74-.35.17-.79.29-.97.68-.03.03-.06.05-.07.08v.02c-.03.11-.04.21-.03.31v.11c0,.05.02.1.05.14l.02.03c.46.45.8.96,1.22,1.48.06.08.15.13.23.18.13.22.22.46.51.6,1.07.61,2.42.95,3.55,1.51,1.13.57,1.98,1.47,3.19,1.89,1.21.42,2.6.23,3.91.39,1.27.15,2.6.85,3.98.68h0c.25-.02.5-.07.76-.12.28.01.54.12.81.19h.07c.11,0,.2-.08.22-.19v-.03s0-.01,0-.01h0c.03-.1.05-.2.07-.29.09-.19.19-.38.3-.56.05-.05.08-.1.11-.16.03-.05.06-.09.09-.14.05-.02.1-.06.11-.1,0-.02,0-.04,0-.05.02-.03.04-.06.06-.09.18-.23-.01-.5-.12-.72"/>
        <path class="cls-1" d="m164.48,70.51c-.06,0-.12-.02-.17-.02-.55-.42-1-.89-1.61-1.14-.98-.39-1.99-.02-2.93.36-.4.05-.79.1-1.17.1-1.32,0-2.48.15-3.76.5-1.27.35-2.41.89-3.63,1.44-1.22.55-2.85.36-4.01.96-.4.17-.55.74-.83,1.03-.28.28-.79.52-.93.87-.14.36.48.83.49,1.22.01.38.14.6.32.96.19.38-.33,1.23-.02,1.49.31.26.95.26,1.33.39.38.13.84-.56,1.25-.57.42,0,.58-.04.99-.2,1.05-.42,2.23-.56,3.29-.98.12-.05.24-.09.36-.13,1.46-.9,2.96-1.72,4.49-2.48,1.12-.56,2.23-1.05,3.44-1.38,1.09-.29,2.17-.46,3.24-.55.07-.05.12-.11.2-.17.14-.1.29-.22.42-.35-.09-.18-.16-.37-.19-.57-.15-.29-.35-.54-.57-.76"/>
        <path class="cls-1" d="m191.66,41.12h0,0Zm-.03.1v-.11s.02.01.03.02l-.03.09Zm-.01.05h0v-.06s0,.06,0,.06Zm7.03-14.31c.05-.44-.03-.64-.08-1.06-.05-.43.58-1.39.45-1.75-.14-.36-.43-.83-.66-1.08-.15-.16-.38-.35-.58-.47-.04-.06-.1-.11-.18-.11h-.07s-.01,0-.02,0c-.04,0-.07,0-.11.01-.06,0-.12.01-.17.04-.25.12-.48.29-.7.46-.16.04-.31.09-.45.18l-.18.15s-.03.07-.03.1l.1-.16c-.04.07-.06.13-.1.2-.02.02-.04.03-.07.05-.04.05-.06.14-.08.24-.47.97-.75,2.01-1.33,2.98-.02.05-.06.09-.09.13-.33.34-.64.71-.85,1.2-.04.11-.09.23-.13.34-.02.03-.04.06-.06.1-.01.02,0,.04,0,.07-.43,1.1-.83,2.28-1.16,3.42-.37,1.31-.56,2.86-.71,4.26-.11.94.05,1.89.21,2.87,0,0,0,.01,0,.02-.12.43-.19.86-.06,1.32.02.09,0,.23-.01.35v.05c0,.06.01.12.04.18-.07.17-.13.34-.11.49.02.21.2.32.31.47l.09.26s.01.01.02.02l.02.02s-.04-.07-.06-.11c.1.23.29.32.49.42.1.12.2.23.33.31.03.06.09.1.16.11h.01s.05.05.07.09l.05.08s.04.03.06.04c.04.07.09.13.18.13h.03c.06,0,.12-.03.16-.08.01,0,.02-.01.03-.02.08-.01.1-.07.11-.15h0s0-.03,0-.03l.05-.04s0,0,0-.01v-.02s0,.01.01.01c.12-.24.26-.49.38-.74,0-.02.02-.04.03-.06,0-.02.01-.04.02-.06,0-.02.02-.04.02-.05.05-.05.1-.09.12-.16v-.03c-.03.05-.07.1-.11.15,0,0,0,0,0,0,.15-.16.25-.36.32-.56.01.05.02.09.02.09.36-1.1.49-2.39.87-3.48.38-1.08.84-2.09,1.23-3.17.39-1.07.94-1.99,1.33-3.06.4-1.07.39-2.55.78-3.62.16-.41-.02-.88.03-1.32"/>
        <path class="cls-1" d="m230.42,74.86c0-.15,0-.31-.16-.43-.29-.24-.2-.89-.64-1.04-1.26-.53-2.67-.98-4-1.48-1.33-.5-3.27-.1-4.68-.44-1.4-.34-2.56-.99-4.04-1.07-.87-.05-1.81-.19-2.75-.25-.28-.06-.57-.06-.85-.09-.15-.01-.3-.09-.46-.09-.11,0-.22.03-.32.07h-.1c-.06.01-.11.04-.16.08.01-.01.03-.02.04-.03-.02.01-.04.03-.06.04h0c-.51.3-1.01.63-1.5.95,0,0,0,0,0,0-.26.03-.63,0-.73.12-.14.16-.34.39-.36.57-.02.11.22.2.46.28,0,0,0,.01,0,.02.02.06.03.13.05.2v-.02s.04.08.07.12l.06.06s.08.08.13.12c-.03-.03-.06-.07-.09-.1.16.28.44.47.74.59.05.02.07.11.11.14.54.34,1.11.81,1.75.6-.04.02-.09.03-.14.05.13,0,.26-.05.38-.04.37.02.71.17,1.08.21.32.04.62.06.94.1.16.02.33.03.49.03,1.15.37,2.05,1.07,3.2,1.45,1.16.38,2.34.73,3.49,1.12,1.15.39,2.13.99,3.29,1.37.44.15,1.12-.35,1.59-.33.47.03.68-.04,1.12-.12.44-.08,1.31.4,1.67.22.11-.05.14-.15.15-.26.05-.02.1-.02.14-.05l.03-.08s.05-.09.05-.13v-.12c0-.12-.02-.24,0-.36.04-.27.19-.51.19-.77,0-.41,0-.83-.18-1.21"/>
        <path class="cls-1" d="m186.13,130.95s.02,0,.03-.01c.02.01.05.03.07.04l-.09-.03Zm-.24-.08h0s0,0,0,0h0s0,0,0,0Zm.41-40.27l.04.02s-.03,0-.05.01c0,0,0,0,0,0,0,0,0-.01,0-.02m.21-.19s.04.05.05.08h-.01s-.06-.04-.09-.05l.05-.03Zm4.32,20.19c0-1.41-.5-2.74-.62-4.07-.12-1.33.1-2.64-.11-3.86-.21-1.22-.28-2.41-.53-3.5-.25-1.08-.52-2.1-.79-3.02-.27-.92-.59-1.75-.84-2.48-.25-.73-.59-1.33-.8-1.84-.08-.21-.15-.39-.23-.57.02-.12.02-.24.03-.36,0-.04,0-.08,0-.11,0-.04,0-.07,0-.11v-.06c0-.1-.04-.21-.11-.29l-.02-.03s.04.07.05.1l-.09-.14-.17.16v-.09l.15-.09c-.17-.17-.43-.17-.61-.02-.02.02-.04.04-.05.06-.06,0-.12.02-.16.07-.12.13-.25.27-.35.42l-.04.04s-.05.09-.05.13v.02c-.22.37-.44.74-.53,1.19-.12.64-.18,1.27-.19,1.89-.18.64-.34,1.35-.55,2.11-.27.92-.25,2.01-.5,3.09-.25,1.08-.81,2.17-1.01,3.39-.2,1.22-.82,2.47-.94,3.79-.09.99.41,2.04.66,3.1-.18.93-.41,1.81-.52,2.76-.15,1.25-.26,2.47-.09,3.72.16,1.19.56,2.27.96,3.37,0,.13,0,.27.02.4.21,1.55.52,3.04.56,4.59.01.56.17,1.11.4,1.64.09.2.26.37.35.56.3.65.62,1.26.98,1.89.17.3.32.66.26,1.04,0,.23.13.42.31.54,0,.02.01.05.02.07,0,.08,0,.15,0,.23v.03s.03.09.06.13l-.02-.03.02.03s.01.02.02.03c0,0,0,0,0,.01h0s.01.02.02.03c0,.06,0,.12.06.15h0s.02.05.03.08h.03s0,0,0,0c0,0-.02,0-.03,0,.01.03.02.06.05.09.03.09.09.16.19.16.07,0,.12-.03.17-.08.04-.02.07-.06.09-.1l.04-.04c.19-.11.3-.34.35-.54.12-.51.28-.99.45-1.47.24-.27.48-.52.61-.87.16-.42.27-.84.4-1.25.3-.49.66-.99.84-1.6.03-.12.06-.24.06-.36.37-1.48.57-2.93.88-4.38.12-.28.2-.56.24-.86.16-.29.29-.6.34-.92.2-1.22.04-2.56.16-3.89.12-1.33.09-2.71.09-4.11"/>
        <path class="cls-1" d="m252.45,65.16c-.07-.14-.22-.24-.39-.24-.02,0-.05,0-.07.01,0,0-.02,0-.02,0-.27-.12-.67-.32-1.19-.53-.51-.2-1.32.02-2.05-.24-.73-.26-1.63-.3-2.55-.57-.92-.27-1.84-.84-2.92-1.1-1.09-.25-2.17-.92-3.39-1.12-.86-.14-1.77-.29-2.69-.42-.74,0-1.48.03-2.22.07-1.25.07-2.5.19-3.75.23-1.15.04-2.32.03-3.45-.16-.32.02-.64.04-.96.05-.98.19-1.92.48-2.84.63-1.22.2-2.41.31-3.49.56-1.08.26-2.11.5-3.03.77-.92.27-1.58,1.06-2.31,1.32-.73.25-1.56-.06-2.08.15-.46.18-.78.43-1.04.57-.03,0-.07,0-.1,0-.25,0-.45.2-.45.45s.2.45.45.45h.63s-.08.02-.12.03c.57.06.98.48,1.46.77.59.34,1.19.78,1.89.66.69.21,1.4.28,2.12.31.78.31,1.59.77,2.5.98,1.08.25,2.32.21,3.54.41,1.22.2,2.55-.11,3.88.01,1.33.12,2.67-.05,4.08-.05s2.78.5,4.1.38c1.33-.12,2.51-.84,3.73-1.04,1.22-.2,2.42-.08,3.51-.34,1.08-.26,2.1-.46,3.02-.73.7-.21,1.27-.64,1.83-.94.21,0,.41-.02.62-.01-.04,0-.07.02-.11.03.75.03,1.52.21,2.22-.19.42-.24.82-.4,1.27-.55,0,.01,0,.03,0,.05.22,0,.39-.16.43-.38.08.03.06-.21-.04-.27"/>
        <path class="cls-1" d="m180.06,87.41s0,0,0,0v-.02s0,0,0,0c0,.01,0,.02,0,.03m-.22-.13s0,0,0,0h0s0,0,0,0m-3.65,19.57s.02-.02.04-.02c.01,0,.01,0,.02,0-.02,0-.04.01-.06.02m6.02-18h0c-.15,0-.21-.15-.32-.21l-.04-.08s-.02,0-.03-.01c-.58-.29-.85-.9-1.23-1.41-.04-.07-.11-.1-.18-.1-.04-.06-.1-.1-.17-.1h-.04c-.09,0-.18.06-.21.15h0s-.04.04-.06.06c-.01.01-.03.02-.05.04-.05.04-.09.09-.09.17l.03-.03s-.04.06-.06.1c-.06.02-.12.07-.14.14-.02.07-.03.15-.05.21-.03.05-.05.11-.09.16-.02.04-.04.07-.06.11-.17.29-.36.59-.54.89-.11.19-.08.41-.12.62-.11.59-.33,1.11-.48,1.66,0,.02,0,.03,0,.05-.11.26-.21.53-.27.81v.12s-.02.03-.03.05c-.38,1.04-.36,2.38-.75,3.41-.39,1.03-1.21,1.72-1.6,2.75-.4,1.03-.49,2.29-.88,3.31-.04.11-.05.22-.04.34,0,0,0,0,0,0v.04c-.03.31-.08.61-.14.91,0,.06,0,.12,0,.18-.1.26-.16.53-.12.82.06.44.38.78.42,1.21.02.32.04.66.2.95h-.02s.02.09.05.12l.02.03c.2.29.52.51.88.51.08.05.17.06.24,0h.01c.16.01.33.02.49.03.33.16.74.1,1.07-.09.22-.03.45-.08.59-.22.24-.25.09-1.2.24-1.59.54-1.11,1.07-2.27,1.58-3.45.51-1.18.56-2.61.91-3.86.36-1.25.64-2.33.73-3.66.07-.93.18-1.81.16-2.74.02-.03.02-.06.04-.08h-.02c.05-.03.08-.1.08-.16v-.13c.01-.09.01-.19,0-.28.04-.24.08-.47.1-.71.06-.19.12-.37.14-.56,0-.02-.11-.51-.17-.49"/>
        <path class="cls-1" d="m209.77,60.18s0,0,.01,0c0,.02.01.04.01.06l-.02-.06Zm20.48-5.92c-.08-.29-.33-.52-.6-.78-.28-.27-.68-.35-1.07-.51-.39-.16-.79.04-1.25-.02-.45-.05-.8-.68-1.26-.62-.46.06-.92.32-1.3.56-1,.61-1.72,1.45-2.9,2-1.07.51-1.81.62-2.91,1.07-1.09.45-2.58.5-3.69.94-.53.21-1.19.6-1.56,1-.15.1-.31.18-.47.26-.16.03-.31.07-.46.13-.73.3-1.94.12-2.62.5,0,0-.03,0-.04.01,0,0-.02.01-.03.02-.03.01-.05.03-.08.04,0,0,0,0,0,.01-.12.06-.29.12-.44.19-.07.24-.11.48-.12.73.05.07.11.12.19.15.01.08.04.16.08.22.02.15.11.29.24.35.02.02.06.03.09.05.16.14.41.29.63.38.05.02.12,0,.19-.01.07.04.15.08.24.08h.08s.05,0,.08-.01c-.04,0-.08-.03-.12-.08l.1.04-.11-.12s.02,0,.02-.01l.18.16s.05,0,.07-.01c-.02,0-.04.01-.06.02h.01s-.04,0-.05,0h0c.12.02.23.07.34.11.05-.01.1-.02.16-.02.07-.03.15-.05.23-.05.35-.11.73-.08,1.07.05-.05-.02-.11-.04-.16-.06.1.03.2.07.3.1,1.33.13,2.66.18,3.88.04,1.46-.18,2.86-.66,4.2-1.09,1.34-.44,2.99-.67,4.24-1.25,1.25-.58,2.4-1.28,3.58-1.89.41-.18.51-.66.77-.92.25-.25.22-.6.3-.89.09-.29.09-.57,0-.87"/>
      </g>
      <g>
        <path class="cls-1" d="m0,196.84c.84.67,1.49,1.76,1.94,3.24.45,1.49.67,3.49.67,6.02v38.23c0,2.53-.22,4.53-.67,6.02-.45,1.49-1.09,2.57-1.94,3.24v.67h16.42v-.67c-.84-.67-1.49-1.75-1.94-3.24-.45-1.49-.67-3.49-.67-6.02v-38.23c0-2.53.22-4.53.67-6.02.45-1.49,1.09-2.57,1.94-3.24v-.67H0v.67Z"/>
        <path class="cls-1" d="m70.06,196.84c.84.67,1.49,1.76,1.94,3.24.45,1.49.67,3.49.67,6.02v14.4l-19.2-16.42c-2.58-2.24-3.12-4.72-1.6-7.41v-.5h-14.06v.67c1.96,1.63,2.95,4.94,2.95,9.94v37.55c0,2.53-.22,4.53-.67,6.02-.45,1.49-1.09,2.57-1.94,3.24v.67h16.42v-.67c-.84-.67-1.49-1.75-1.94-3.24-.45-1.49-.67-3.49-.67-6.02v-27.87l20.71,17.77v10.1c0,2.53-.22,4.53-.67,6.02-.45,1.49-1.09,2.57-1.94,3.24v.67h16.42v-.67c-.84-.67-1.49-1.75-1.94-3.24-.45-1.49-.67-3.49-.67-6.02v-38.23c0-2.53.22-4.53.67-6.02.45-1.49,1.09-2.57,1.94-3.24v-.67h-16.42v.67Z"/>
        <path class="cls-1" d="m130.6,221.26l-3.96-2.69c-2.13-1.46-3.64-2.69-4.5-3.71-.87-1.01-1.31-2.19-1.31-3.54,0-1.46.62-2.71,1.85-3.75,1.23-1.04,2.89-1.56,4.97-1.56.95,0,1.78.08,2.48.25.7.17,1.31.34,1.81.5.79.28,1.5.63,2.15,1.05.64.42,1.16.86,1.56,1.31h.67v-13.64c-.95.28-1.82.42-2.61.42-.56,0-1.22-.04-1.98-.13-.76-.08-1.73-.13-2.9-.13-6.4,0-11.34,1.45-14.82,4.34-3.48,2.89-5.22,6.69-5.22,11.41,0,3.09.73,5.84,2.19,8.25,1.46,2.41,3.82,4.72,7.07,6.9l3.96,2.69c2.25,1.52,3.9,2.93,4.97,4.25,1.07,1.32,1.6,2.79,1.6,4.42,0,1.85-.72,3.42-2.15,4.72-1.43,1.29-3.38,1.94-5.85,1.94-1.46,0-2.72-.14-3.79-.42-1.07-.28-1.97-.62-2.69-1.01-.62-.34-1.21-.72-1.77-1.14-.56-.42-1.15-.94-1.77-1.56h-.67v13.22c1.12.28,2.62.53,4.51.76,1.88.22,3.75.34,5.6.34,6.79,0,11.93-1.59,15.41-4.76,3.48-3.17,5.22-7.2,5.22-12.08,0-3.48-.9-6.61-2.69-9.39-1.8-2.78-4.24-5.21-7.33-7.28Z"/>
        <path class="cls-1" d="m201.79,200.75c-3.9-3.06-9.42-4.59-16.55-4.59h-23.24v.67c.9.67,1.6,1.76,2.11,3.24.5,1.49.76,3.49.76,6.02v38.23c0,2.53-.22,4.53-.67,6.02-.45,1.49-1.09,2.57-1.94,3.24v.67h16.84v-.67c-.96-.62-1.7-1.67-2.23-3.16-.53-1.49-.8-3.52-.8-6.1v-5.81l7.07-2.02c5.84-1.68,10.55-3.58,14.15-5.68,3.59-2.11,6.22-4.56,7.87-7.37,1.65-2.81,2.48-6.09,2.48-9.85,0-5.5-1.95-9.78-5.85-12.84Zm-9.18,20.29c-2.27,1.88-5.99,3.52-11.16,4.93l-5.39,1.52v-21.05h9.18c3.48,0,6.15.66,8,1.98,1.85,1.32,2.78,3.19,2.78,5.6,0,2.81-1.14,5.15-3.41,7.03Z"/>
        <path class="cls-1" d="m227.93,196.84c.84.67,1.49,1.76,1.94,3.24.45,1.49.67,3.49.67,6.02v38.23c0,2.53-.22,4.53-.67,6.02-.45,1.49-1.09,2.57-1.94,3.24v.67h16.42v-.67c-.84-.67-1.49-1.75-1.94-3.24-.45-1.49-.67-3.49-.67-6.02v-38.23c0-2.53.22-4.53.67-6.02.45-1.49,1.09-2.57,1.94-3.24v-.67h-16.42v.67Z"/>
        <path class="cls-1" d="m312.13,251.11c-1.01-1.37-1.91-2.99-2.69-4.84l-7.75-18.52c6.12-3.76,9.18-8.98,9.18-15.66,0-5.05-1.67-8.97-5.01-11.75-3.34-2.78-8.1-4.17-14.27-4.17h-25.77v.67c.9.67,1.6,1.76,2.11,3.24.5,1.49.76,3.49.76,6.02v38.23c0,2.53-.22,4.53-.67,6.02-.45,1.49-1.09,2.57-1.94,3.24v.67h16.42v-.67c-.84-.67-1.49-1.75-1.94-3.24-.45-1.49-.67-3.49-.67-6.02v-9.01l11.87-3.62,5.73,14.57c.73,1.85.98,3.38.76,4.59-.22,1.21-.73,2.12-1.52,2.74v.67h17.77v-.67c-.56-.28-1.35-1.11-2.36-2.48Zm-15.54-32.46c-1.77,1.52-4.81,2.86-9.14,4.04l-7.58,2.02v-18.27h10.69c2.75,0,4.88.53,6.4,1.6,1.52,1.07,2.27,2.55,2.27,4.46,0,2.58-.88,4.63-2.65,6.15Z"/>
        <path class="cls-1" d="m373.26,241.04c-1.35,1.85-4.46,2.78-9.35,2.78h-17.09v-15.71c1.18-.22,2.58-.33,4.23-.33h1.71c2.37,0,4.25.22,5.65.67,1.39.45,2.41,1.09,3.04,1.94h.63v-16.42h-.63c-.63.84-1.65,1.49-3.04,1.94-1.4.45-3.28.67-5.65.67h-1.71c-1.65,0-3.05-.11-4.23-.33v-9.65h16.76c4.88,0,8,.93,9.35,2.78h.67v-13.89c-1.01.22-2.15.39-3.41.5-1.26.11-2.54.17-3.83.17h-33.6v.67c.9.67,1.6,1.76,2.11,3.24.5,1.49.76,3.49.76,6.02v38.23c0,2.53-.25,4.53-.76,6.02-.51,1.49-1.21,2.57-2.11,3.24v.67h33.93c1.29,0,2.57.04,3.83.13,1.26.08,2.4.27,3.41.55v-13.89h-.67Z"/>
      </g>
      <g>
        <path class="cls-1" d="m40.14,281.04h-4.71v3.67h5.26v1.87h-7.54v-12.49h7.26v1.87h-4.98v3.22h4.71v1.85Z"/>
        <path class="cls-1" d="m48.25,286.58v-12.49h2.59l3.22,5.35c.83,1.39,1.56,2.83,2.13,4.19h.04c-.15-1.67-.2-3.28-.2-5.19v-4.35h2.11v12.49h-2.35l-3.26-5.48c-.8-1.37-1.63-2.91-2.24-4.32l-.06.02c.09,1.61.11,3.26.11,5.32v4.46h-2.09Z"/>
        <path class="cls-1" d="m68.72,276h-3.56v-1.91h9.43v1.91h-3.59v10.58h-2.28v-10.58Z"/>
        <path class="cls-1" d="m88.59,281.04h-4.71v3.67h5.26v1.87h-7.54v-12.49h7.26v1.87h-4.98v3.22h4.71v1.85Z"/>
        <path class="cls-1" d="m96.7,274.26c.85-.15,2.13-.26,3.45-.26,1.8,0,3.02.3,3.85,1,.69.57,1.08,1.44,1.08,2.5,0,1.61-1.09,2.7-2.26,3.13v.06c.89.33,1.43,1.2,1.74,2.41.39,1.56.72,3,.98,3.48h-2.35c-.18-.37-.48-1.39-.83-2.95-.35-1.63-.94-2.15-2.24-2.19h-1.15v5.13h-2.26v-12.32Zm2.26,5.52h1.35c1.54,0,2.5-.82,2.5-2.06,0-1.37-.96-2-2.44-2-.72,0-1.19.06-1.41.11v3.95Z"/>
        <path class="cls-1" d="m115.27,276h-3.56v-1.91h9.43v1.91h-3.59v10.58h-2.28v-10.58Z"/>
        <path class="cls-1" d="m129.31,283.04l-1.07,3.54h-2.35l4-12.49h2.91l4.06,12.49h-2.45l-1.13-3.54h-3.96Zm3.58-1.72l-.98-3.08c-.24-.76-.44-1.61-.63-2.33h-.04c-.19.72-.37,1.59-.59,2.33l-.96,3.08h3.21Z"/>
        <path class="cls-1" d="m146.43,274.09v12.49h-2.28v-12.49h2.28Z"/>
        <path class="cls-1" d="m154.59,286.58v-12.49h2.59l3.22,5.35c.83,1.39,1.56,2.83,2.13,4.19h.04c-.15-1.67-.2-3.28-.2-5.19v-4.35h2.11v12.49h-2.35l-3.26-5.48c-.8-1.37-1.63-2.91-2.24-4.32l-.06.02c.09,1.61.11,3.26.11,5.32v4.46h-2.09Z"/>
        <path class="cls-1" d="m183.21,281.48c-.07-1.61-.17-3.56-.15-5.24h-.06c-.41,1.52-.93,3.2-1.48,4.78l-1.82,5.41h-1.76l-1.67-5.34c-.48-1.59-.93-3.3-1.26-4.85h-.04c-.06,1.63-.13,3.61-.22,5.32l-.28,5.02h-2.13l.83-12.49h3l1.63,5.02c.44,1.46.83,2.95,1.15,4.34h.06c.33-1.35.76-2.89,1.24-4.35l1.72-5h2.96l.72,12.49h-2.22l-.24-5.09Z"/>
        <path class="cls-1" d="m200.53,281.04h-4.71v3.67h5.26v1.87h-7.54v-12.49h7.26v1.87h-4.98v3.22h4.71v1.85Z"/>
        <path class="cls-1" d="m208.64,286.58v-12.49h2.59l3.22,5.35c.83,1.39,1.56,2.83,2.13,4.19h.04c-.15-1.67-.2-3.28-.2-5.19v-4.35h2.11v12.49h-2.35l-3.26-5.48c-.8-1.37-1.63-2.91-2.24-4.32l-.06.02c.09,1.61.11,3.26.11,5.32v4.46h-2.09Z"/>
        <path class="cls-1" d="m229.1,276h-3.56v-1.91h9.43v1.91h-3.59v10.58h-2.28v-10.58Z"/>
        <path class="cls-1" d="m251.38,274.26c.85-.15,2.13-.26,3.45-.26,1.8,0,3.02.3,3.85,1,.69.57,1.08,1.44,1.08,2.5,0,1.61-1.09,2.7-2.26,3.13v.06c.89.33,1.43,1.2,1.74,2.41.39,1.56.72,3,.98,3.48h-2.35c-.18-.37-.48-1.39-.83-2.95-.35-1.63-.94-2.15-2.24-2.19h-1.15v5.13h-2.26v-12.32Zm2.26,5.52h1.35c1.54,0,2.5-.82,2.5-2.06,0-1.37-.96-2-2.44-2-.72,0-1.19.06-1.41.11v3.95Z"/>
        <path class="cls-1" d="m274.46,281.04h-4.71v3.67h5.26v1.87h-7.54v-12.49h7.26v1.87h-4.98v3.22h4.71v1.85Z"/>
        <path class="cls-1" d="m282.52,284.1c.74.43,1.85.8,3.02.8,1.46,0,2.28-.69,2.28-1.7,0-.95-.63-1.5-2.22-2.07-2.06-.74-3.37-1.83-3.37-3.63,0-2.04,1.7-3.59,4.41-3.59,1.35,0,2.35.3,3,.63l-.56,1.83c-.45-.24-1.32-.59-2.48-.59-1.44,0-2.07.78-2.07,1.5,0,.96.72,1.41,2.39,2.06,2.17.82,3.22,1.91,3.22,3.71,0,2-1.52,3.74-4.74,3.74-1.32,0-2.69-.37-3.37-.78l.5-1.89Z"/>
        <path class="cls-1" d="m308.82,280.21c0,4.19-2.54,6.58-5.98,6.58s-5.74-2.69-5.74-6.35,2.41-6.54,5.93-6.54,5.8,2.76,5.8,6.32Zm-9.32.19c0,2.54,1.28,4.56,3.46,4.56s3.45-2.04,3.45-4.65c0-2.35-1.17-4.58-3.45-4.58s-3.46,2.09-3.46,4.67Z"/>
        <path class="cls-1" d="m316.33,274.26c.85-.15,2.13-.26,3.45-.26,1.8,0,3.02.3,3.85,1,.69.57,1.08,1.44,1.08,2.5,0,1.61-1.09,2.7-2.26,3.13v.06c.89.33,1.43,1.2,1.74,2.41.39,1.56.72,3,.98,3.48h-2.35c-.18-.37-.48-1.39-.83-2.95-.35-1.63-.95-2.15-2.24-2.19h-1.15v5.13h-2.26v-12.32Zm2.26,5.52h1.35c1.54,0,2.5-.82,2.5-2.06,0-1.37-.96-2-2.44-2-.72,0-1.19.06-1.41.11v3.95Z"/>
        <path class="cls-1" d="m334.91,276h-3.56v-1.91h9.43v1.91h-3.59v10.58h-2.28v-10.58Z"/>
      </g>
      <g>
        <path class="cls-1" d="m138.83,171.21c-.07-1.61-.17-3.56-.15-5.24h-.06c-.41,1.52-.93,3.2-1.48,4.78l-1.82,5.41h-1.76l-1.67-5.34c-.48-1.59-.93-3.3-1.26-4.85h-.04c-.06,1.63-.13,3.61-.22,5.32l-.28,5.02h-2.13l.83-12.49h3l1.63,5.02c.44,1.46.83,2.95,1.15,4.34h.06c.33-1.35.76-2.89,1.24-4.35l1.72-5h2.96l.72,12.49h-2.22l-.24-5.09Z"/>
        <path class="cls-1" d="m160.24,169.93c0,4.19-2.54,6.58-5.98,6.58s-5.74-2.69-5.74-6.35,2.41-6.54,5.93-6.54,5.8,2.76,5.8,6.32Zm-9.32.19c0,2.54,1.28,4.56,3.46,4.56s3.45-2.04,3.45-4.65c0-2.35-1.17-4.58-3.45-4.58s-3.46,2.09-3.46,4.67Z"/>
        <path class="cls-1" d="m170.03,163.82v5h5.28v-5h2.28v12.49h-2.28v-5.5h-5.28v5.5h-2.28v-12.49h2.28Z"/>
        <path class="cls-1" d="m192.74,170.77h-4.71v3.67h5.26v1.87h-7.54v-12.49h7.26v1.87h-4.98v3.22h4.71v1.85Z"/>
        <path class="cls-1" d="m210.85,175.73c-.8.3-2.35.7-4.02.7-2.11,0-3.7-.54-4.89-1.67-1.11-1.06-1.76-2.7-1.74-4.59,0-3.95,2.82-6.48,6.95-6.48,1.54,0,2.74.32,3.32.59l-.5,1.83c-.69-.3-1.52-.54-2.83-.54-2.67,0-4.54,1.58-4.54,4.48s1.74,4.52,4.34,4.52c.81,0,1.43-.11,1.72-.26v-3.11h-2.2v-1.8h4.41v6.32Z"/>
        <path class="cls-1" d="m221.24,172.77l-1.07,3.54h-2.35l4-12.49h2.91l4.06,12.49h-2.45l-1.13-3.54h-3.96Zm3.58-1.72l-.98-3.08c-.24-.76-.44-1.61-.63-2.33h-.04c-.19.72-.37,1.59-.59,2.33l-.96,3.08h3.21Z"/>
        <path class="cls-1" d="m236.07,176.31v-12.49h2.59l3.22,5.35c.83,1.39,1.56,2.83,2.13,4.19h.04c-.15-1.67-.2-3.28-.2-5.19v-4.35h2.11v12.49h-2.35l-3.26-5.48c-.8-1.37-1.63-2.91-2.24-4.32l-.06.02c.09,1.61.11,3.26.11,5.32v4.46h-2.09Z"/>
      </g>
    </g>
  </g>
</svg>