<svg width="40" height="40" viewBox="0 0 40 40" fill="none" xmlns="http://www.w3.org/2000/svg">
<path d="M29.4219 13.4219L22.8594 19.9844L29.4219 26.6094C30.2344 27.3594 30.2344 28.6719 29.4219 29.4219C28.6719 30.2344 27.3594 30.2344 26.6094 29.4219L20.0469 22.8594L13.4219 29.4219C12.6719 30.2344 11.3594 30.2344 10.6094 29.4219C9.79688 28.6719 9.79688 27.3594 10.6094 26.6094L17.1719 19.9844L10.6094 13.4219C9.79688 12.6719 9.79688 11.3594 10.6094 10.6094C11.3594 9.79688 12.6719 9.79688 13.4219 10.6094L20.0469 17.1719L26.6094 10.6094C27.3594 9.79688 28.6719 9.79688 29.4219 10.6094C30.2344 11.3594 30.2344 12.6719 29.4219 13.4219Z" fill="white"/>
</svg>
