<svg width="40" height="40" viewBox="0 0 40 40" fill="none" xmlns="http://www.w3.org/2000/svg">
<path d="M37.375 13.4375L30.8125 20L37.375 26.625C38.1875 27.375 38.1875 28.6875 37.375 29.4375C36.625 30.25 35.3125 30.25 34.5625 29.4375L28 22.875L21.375 29.4375C20.625 30.25 19.3125 30.25 18.5625 29.4375C17.75 28.6875 17.75 27.375 18.5625 26.625L25.125 20L18.5625 13.4375C17.75 12.6875 17.75 11.375 18.5625 10.625C19.3125 9.8125 20.625 9.8125 21.375 10.625L28 17.1875L34.5625 10.625C35.3125 9.8125 36.625 9.8125 37.375 10.625C38.1875 11.375 38.1875 12.6875 37.375 13.4375Z" fill="#68507C"/>
</svg>
